<?xml version="1.0" encoding="utf-8"?>
<!-- Generator: Adobe Illustrator 23.0.1, SVG Export Plug-In . SVG Version: 6.00 Build 0)  -->
<svg version="1.1" id="Layer_1" xmlns="http://www.w3.org/2000/svg" xmlns:xlink="http://www.w3.org/1999/xlink" x="0px" y="0px"
	 viewBox="0 0 90.67 74.9" style="enable-background:new 0 0 90.67 74.9;" xml:space="preserve">
<style type="text/css">
	.st0{fill:#82D4F7;}
	.st1{fill:#FFFFFF;}
	.st2{fill:#F15A24;}
	.st3{fill:#FAA43A;}
	.st4{fill:#6BA041;}
	.st5{fill:#93C840;}
	.st6{fill:#758F9E;}
	.st7{fill:#3695D2;}
	.st8{fill:#3BB2E5;}
	.st9{fill:#F04C25;}
	.st10{fill:#51C5F2;}
	.st11{fill:#1A7BBF;}
	.st12{fill:#273139;}
	.st13{fill:#71BF44;}
	.st14{fill:#F47E20;}
</style>
<path d="M19.65,34.15l-7.04-13.23l-3.22,4.21v9.02H1.46V1.14h7.93v14.97L19.45,1.14h8.43l-9.86,13.93
	c0.55,0.55,10.21,19.08,10.21,19.08H19.65z"/>
<path d="M51.47,34.15l-9.86-14.67l-2.68-4.16v18.84h-7.34V1.14h6.74l9.62,14.92l2.53,4.11V1.14h7.34v33.01H51.47z"/>
<path d="M89.64,34.15h-8.53L61.78,1.14h8.53L89.64,34.15z"/>
<path d="M25.31,74.01V60.88H14.66v13.14H6.73V41h7.93v13.53h10.66V41h7.93v33.01H25.31z"/>
<path d="M66.21,74.01h-8.53L38.36,41h8.53L66.21,74.01z"/>
<polygon class="st5" points="37.94,74.01 46,74.01 89.42,1.32 81.88,1.32 "/>
</svg>
